<?xml version="1.0" standalone="no"?><!DOCTYPE svg PUBLIC "-//W3C//DTD SVG 1.1//EN" "http://www.w3.org/Graphics/SVG/1.1/DTD/svg11.dtd"><svg t="1503904255154" class="icon" style="" viewBox="0 0 1024 1024" version="1.1" xmlns="http://www.w3.org/2000/svg" p-id="1582" xmlns:xlink="http://www.w3.org/1999/xlink" width="200" height="200"><defs><style type="text/css">html, * { user-select: text !important; }
</style></defs><path d="M512 945.677167c-58.533115 0-115.326609-11.461029-168.845523-34.076096-51.676963-21.898753-98.032734-53.109592-137.839345-92.916203-39.806611-39.806611-71.119781-86.264713-92.916203-137.839345-22.615067-53.518914-34.076096-110.312408-34.076096-168.845523s11.461029-115.326609 34.076096-168.845523c21.898753-51.676963 53.109592-98.032734 92.916203-137.839345s86.264713-71.119781 137.839345-92.916203c53.518914-22.615067 110.312408-34.076096 168.845523-34.076096s115.326609 11.461029 168.845523 34.076096c51.676963 21.898753 98.032734 53.109592 137.839345 92.916203s71.119781 86.264713 92.916203 137.839345c22.615067 53.518914 34.076096 110.312408 34.076096 168.845523 0 58.533115-11.461029 115.326609-34.076096 168.845523-21.898753 51.676963-53.109592 98.032734-92.916203 137.839345s-86.264713 71.119781-137.839345 92.916203C627.428939 934.216137 570.533115 945.677167 512 945.677167zM512 108.817358c-54.43989 0-107.24249 10.642384-156.87284 31.620162-47.993061 20.261463-91.074252 49.323359-128.117936 86.367043s-66.10558 80.124875-86.367043 128.117936c-20.977777 49.732681-31.620162 102.43295-31.620162 156.87284s10.642384 107.24249 31.620162 156.87284c20.261463 47.993061 49.323359 91.074252 86.367043 128.117936s80.124875 66.10558 128.117936 86.367043c49.732681 20.977777 102.43295 31.620162 156.87284 31.620162s107.24249-10.642384 156.87284-31.620162c47.993061-20.261463 91.074252-49.323359 128.117936-86.367043s66.10558-80.124875 86.367043-128.117936c20.977777-49.732681 31.620162-102.43295 31.620162-156.87284s-10.642384-107.24249-31.620162-156.87284c-20.261463-47.993061-49.323359-91.074252-86.367043-128.117936s-80.124875-66.10558-128.117936-86.367043C619.24249 119.459742 566.43989 108.817358 512 108.817358z" p-id="1583"></path><path d="M496.650407 152.717194l30.699186 0 0 374.427738-30.699186 0 0-374.427738Z" p-id="1584"></path><path d="M501.357616 496.548076l268.822538 0 0 30.699186-268.822538 0 0-30.699186Z" p-id="1585"></path></svg>