<?xml version="1.0" standalone="no"?><!DOCTYPE svg PUBLIC "-//W3C//DTD SVG 1.1//EN" "http://www.w3.org/Graphics/SVG/1.1/DTD/svg11.dtd"><svg class="icon" width="200px" height="200.00px" viewBox="0 0 1024 1024" version="1.1" xmlns="http://www.w3.org/2000/svg"><path d="M1014.596454 969.158974 557.335857 511.930415l455.289629-455.258695c12.472567-12.501732 12.472567-32.786731 0-45.288462-12.534991-12.471033-32.788074-12.471033-45.290318 0L512.060889 466.658326 54.818712 9.448186C42.284745-3.115967 21.93649-3.115967 9.403546 9.448186c-12.532945 12.500709-12.532945 32.848129 0 45.38056l457.251387 457.234699L10.371633 968.348516c-12.503267 12.498662-12.503267 32.756031 0 45.25367 12.504291 12.506848 32.787051 12.506848 45.260641 0L511.929901 557.334511l457.250364 457.238792c12.534991 12.535501 32.881199 12.535501 45.415167 0C1027.131445 1002.038826 1027.130422 981.723128 1014.596454 969.158974z"  /></svg>